<?xml version="1.0" encoding="iso-8859-1"?>
<!-- Uploaded to: SVG Repo, www.svgrepo.com, Generator: SVG Repo Mixer Tools -->
<svg height="800px" width="800px" version="1.1" id="Layer_1" xmlns="http://www.w3.org/2000/svg" xmlns:xlink="http://www.w3.org/1999/xlink" 
	 viewBox="0 0 512 512" xml:space="preserve">
<polygon style="fill:#FFD422;" points="294.476,320.754 313.5,373.953 212.397,373.953 231.421,320.754 "/>
<path style="opacity:0.2;fill:#891C00;enable-background:new    ;" d="M225.554,337.188c10.39,3.753,23.313,5.979,37.322,5.979
	c14.076,0,27.052-2.248,37.468-6.033l-5.857-16.38h-63.055L225.554,337.188z"/>
<path style="fill:#FFDA44;" d="M190.951,122.45c20.419-13.696,43.815-24.053,70.305-24.053c63.375,0,114.75,51.375,114.75,114.75
	s-51.375,114.75-114.75,114.75s-114.75-51.375-114.75-114.75c0-22.991,6.762-44.404,18.404-62.356
	C164.911,150.792,177.721,131.324,190.951,122.45z"/>
<path style="opacity:0.2;fill:#891C00;enable-background:new    ;" d="M323.621,116.654c11.525,17.891,18.214,39.192,18.214,62.057
	c0,63.375-51.375,114.75-114.75,114.75c-22.864,0-44.165-6.689-62.057-18.215c20.42,31.7,56.026,52.693,96.536,52.693
	c63.375,0,114.75-51.375,114.75-114.75C376.315,172.68,355.321,137.074,323.621,116.654z"/>
<g>
	<path style="fill:#CCA400;" d="M327.862,118.949l-8.443,16.84l-29.187,4.439l5.457,31.07l-26.797,7.384l-4.872,37.15l23.354,9.817
		l20.496-20.671l21.316,4.763l19.488,29.842l26.144-17.177l1.874,0.165c0.253-3.108,0.388-6.25,0.388-9.423
		C377.078,174.139,357.609,139.683,327.862,118.949z"/>
	<path style="fill:#CCA400;" d="M264.661,272.429l-12.152,26.315l17.752,28.27c18.056-1.133,34.981-6.432,49.817-14.961
		l2.184-37.405l-32.553-23.675L264.661,272.429z"/>
	<path style="fill:#CCA400;" d="M165.455,150.971c-11.643,17.953-18.404,39.365-18.404,62.356
		c0,49.331,31.132,91.388,74.819,107.605l2.839-1.071l2.537-52.631c0,0-39.632-15.114-40.583-15.432
		c-0.952-0.317,2.22-15.006,2.22-15.006l-5.39-15.535c0,0,41.852-13.633,41.852-14.585c0-0.951-8.878-38.681-8.878-38.681
		l6.976-19.341c0,0-20.753-27.564-23.032-31.649c-3.031,1.796-6.002,3.676-8.911,5.627
		C178.265,131.503,165.455,150.971,165.455,150.971z"/>
</g>
<polygon style="fill:#FFDA44;" points="237.535,102.999 261.256,50.312 287.386,103.974 "/>
<g>
	<path style="fill:#CCA400;" d="M147.05,457.191c0-10.505,8.516-19.021,19.021-19.021h193.771c10.505,0,19.021,8.516,19.021,19.021
		v47.217H147.05v-19.016V457.191z"/>
	<path style="fill:#CCA400;" d="M328.043,370.759H197.87c-2.236,0-4.049,1.813-4.049,4.049v36.068c0,4.723,3.828,8.552,8.552,8.552
		h1.796c10.667,0,19.314,8.647,19.314,19.314l0,0h78.947l0,0c0-10.667,8.647-19.314,19.314-19.314h1.796
		c4.723,0,8.552-3.828,8.552-8.552v-36.068C332.092,372.572,330.279,370.759,328.043,370.759z"/>
	<path style="fill:#CCA400;" d="M261.256,11.304c11.604,0,21.011,9.407,21.011,21.011s-9.407,21.011-21.011,21.011
		c-11.604,0-21.294-9.41-21.011-21.011C240.427,24.889,244.348,11.304,261.256,11.304z"/>
</g>
<g>
	<path style="opacity:0.2;fill:#891C00;enable-background:new    ;" d="M274.302,15.863c0.565,1.9,0.879,3.907,0.879,5.991
		c0,11.604-9.407,21.011-21.011,21.011c-4.941,0-9.533-1.711-13.158-4.566c2.489,8.685,10.72,15.026,20.244,15.026
		c11.604,0,21.011-9.407,21.011-21.011C282.267,25.645,279.149,19.712,274.302,15.863z"/>
	<polygon style="opacity:0.2;fill:#891C00;enable-background:new    ;" points="147.191,466.496 147.191,485.392 147.191,504.408 
		379.004,504.408 379.004,466.496 	"/>
</g>
<path d="M409.949,256.026c-6.896-4.66-16.727-10.17-29.246-16.397c1.89-8.53,2.895-17.39,2.895-26.48
	c0-41.219-20.492-77.74-51.822-99.917c-0.413-0.359-0.87-0.679-1.37-0.95c-11.305-7.774-23.974-13.698-37.57-17.334l-20.611-39.932
	c10.342-4.312,17.632-14.525,17.632-26.411C289.859,12.832,277.028,0,261.256,0c-4.193,0-7.592,3.398-7.592,7.592
	s3.399,7.592,7.592,7.592c7.399,0,13.419,6.019,13.419,13.419s-6.02,13.419-13.419,13.419c-7.399,0-13.419-6.019-13.419-13.419
	c0-4.194-3.399-7.592-7.592-7.592c-4.193,0-7.592,3.398-7.592,7.592c0,11.985,7.413,22.266,17.892,26.515l-18.746,39.238
	c-12.763,3.14-24.908,8.348-36.111,15.497c-0.042,0.025-0.085,0.046-0.127,0.073c-0.023,0.015-0.045,0.033-0.067,0.049
	c-3.141,2.012-6.214,4.162-9.199,6.479c-3.312,2.571-3.912,7.341-1.341,10.652c2.571,3.311,7.34,3.912,10.652,1.342
	c0.636-0.493,1.286-0.959,1.929-1.435c3.341,4.748,8.597,11.806,16.825,22.745l-5.583,15.479c-0.499,1.384-0.585,2.884-0.249,4.315
	c2.319,9.853,5.703,24.351,7.518,32.353c-3.327,1.198-8.017,2.817-13.36,4.625c-16.417-6.609-31.756-13.162-45.396-19.395
	c2.838-11.385,7.535-22.261,13.988-32.212c2.282-3.519,1.28-8.22-2.238-10.501c-3.516-2.28-8.219-1.279-10.501,2.239
	c-2.013,3.105-3.86,6.295-5.573,9.547c-15.951-4.035-28.95-6.678-38.668-7.855c-11.363-1.379-22.29-1.508-25.293,6.781
	c-3.27,9.03,7.751,16.478,13.047,20.057c7.61,5.144,18.788,11.32,33.221,18.358c1.586,0.773,3.209,1.555,4.856,2.34
	c-0.805,5.687-1.218,11.451-1.218,17.259c0,53.469,34.482,99.03,82.375,115.631l-14.312,34.388H193.82
	c-4.193,0-7.592,3.398-7.592,7.592v40.117c0,8.902,7.242,16.144,16.144,16.144h1.796c3.29,0,6.264,1.368,8.395,3.558h-46.493
	c-14.675,0-26.614,11.939-26.614,26.613c0,4.194,3.399,7.592,7.592,7.592s7.592-3.398,7.592-7.592
	c0-6.302,5.127-11.429,11.43-11.429h54.523c0.891,0.367,1.866,0.572,2.889,0.572h78.947c1.023,0,1.998-0.206,2.889-0.572h54.523
	c6.302,0,11.43,5.126,11.43,11.429v39.626H154.641v-11.424c0-4.194-3.399-7.592-7.592-7.592c-4.193,0-7.592,3.398-7.592,7.592
	v19.016c0,4.194,3.399,7.592,7.592,7.592h231.813c4.193,0,7.592-3.398,7.592-7.592V457.19c0-14.674-11.939-26.613-26.614-26.613
	h-46.493c2.131-2.191,5.104-3.558,8.395-3.558h1.796c8.902,0,16.144-7.242,16.144-16.144v-40.117c0-4.194-3.399-7.592-7.592-7.592
	h-13.174l-14.754-35.451c5.479-2.059,10.775-4.498,15.85-7.289c1.517-0.341,2.874-1.133,3.902-2.243
	c17.089-10.233,31.489-24.512,41.859-41.51c14.246,3.426,25.793,5.598,34.355,6.461c1.982,0.199,4.632,0.468,7.439,0.468
	c6.201,0,13.175-1.305,15.425-7.52C426.266,267.054,415.245,259.605,409.949,256.026z M324.5,410.876c0,0.528-0.43,0.96-0.96,0.96
	h-1.796c-11.988,0-22.155,7.888-25.622,18.742h-66.332c-3.467-10.854-13.633-18.742-25.622-18.742h-1.796
	c-0.529,0-0.96-0.431-0.96-0.96v-7.635l55.08,0.179c0.008,0,0.017,0,0.025,0c4.182,0,7.578-3.383,7.592-7.568
	c0.013-4.194-3.374-7.603-7.568-7.616l-55.13-0.179v-9.706h123.087v32.525H324.5z M368.414,213.149c0,1.247-0.029,2.487-0.072,3.724
	l-18.547,12.186l-15.326-23.468c-1.082-1.658-2.77-2.827-4.702-3.259l-21.316-4.763c-2.547-0.569-5.209,0.21-7.046,2.064
	l-16.887,17.031l-13.29-5.588l3.464-26.414l21.941-6.046c3.774-1.04,6.137-4.778,5.46-8.633l-4.113-23.418l21.507-3.27
	c2.437-0.37,4.541-1.9,5.645-4.104l4.329-8.632C353.239,150.231,368.414,179.951,368.414,213.149z M261.518,67.374l12.433,24.088
	c-4.174-0.432-8.409-0.656-12.696-0.656c-3.758,0-7.483,0.182-11.177,0.513L261.518,67.374z M223.827,168.268l6.21-17.22
	c0.869-2.41,0.464-5.096-1.076-7.143c-6.821-9.059-14.163-18.975-18.571-25.119c15.516-8.411,32.818-12.797,50.866-12.797
	c20.383,0,39.456,5.722,55.696,15.644l-3.631,7.242l-25.302,3.848c-2.021,0.308-3.833,1.416-5.024,3.076
	c-1.192,1.66-1.666,3.73-1.312,5.744l4.263,24.27l-20.142,5.55c-2.943,0.811-5.113,3.306-5.511,6.332l-4.872,37.15
	c-0.444,3.392,1.433,6.661,4.586,7.987l23.354,9.817c2.854,1.201,6.153,0.548,8.333-1.654l17.542-17.693l14.209,3.176l17.801,27.258
	c1.102,1.689,2.832,2.87,4.807,3.281c0.513,0.107,1.033,0.16,1.549,0.16c1.471,0,2.921-0.427,4.17-1.247l14.026-9.217
	c-1.759,7.811-4.373,15.301-7.74,22.366c-29.82-7.775-67.275-19.674-105.642-33.567c-9.523-3.449-18.923-6.956-28.103-10.481
	c0.57-0.218,1.096-0.422,1.538-0.601c1.957-0.793,6.538-2.65,6.538-7.936C232.39,205.412,232.39,204.686,223.827,168.268z
	 M311.034,308.018c-11.729,6.179-24.734,10.249-38.51,11.696l-13.109-20.876l9.732-21.075l19.234-16.476l24.347,17.707
	L311.034,308.018z M258.009,267.309c-0.829,0.711-1.496,1.591-1.954,2.583l-12.151,26.315c-1.076,2.331-0.902,5.046,0.464,7.221
	l10.474,16.68c-7.894-0.469-15.563-1.789-22.91-3.881l2.353-48.81c0.158-3.28-1.81-6.289-4.878-7.459
	c-10.744-4.098-26.83-10.228-35.275-13.43c0.434-2.501,1.045-5.616,1.627-8.313c0.294-1.36,0.208-2.775-0.248-4.09l-2.86-8.243
	c2.771-0.914,6.1-2.017,9.571-3.178c14.362,5.712,29.484,11.455,45.025,17.082c10.289,3.726,20.463,7.291,30.431,10.674
	L258.009,267.309z M111.651,163.334c6.855,0.779,17.806,2.677,34.993,6.944c-1.264,3.38-2.36,6.819-3.318,10.297
	C127.184,172.761,117.456,167.152,111.651,163.334z M154.098,213.149c0-3.536,0.186-7.051,0.527-10.539
	c8.144,3.677,16.824,7.445,25.938,11.262c-1.924,0.636-3.515,2.013-4.418,3.829c-0.907,1.826-1.041,3.94-0.374,5.865l4.701,13.549
	c-0.297,1.448-0.702,3.472-1.075,5.527c-0.42,2.316-0.717,4.211-0.88,5.631c-0.643,5.592,1.075,9.131,5.113,10.521
	c1.387,0.501,20.226,7.674,35.219,13.39l-1.858,38.547C179.929,293.852,154.098,256.46,154.098,213.149z M302.115,362.312H223.78
	l12.254-29.443c8.143,1.714,16.578,2.621,25.222,2.621c9.745,0,19.225-1.152,28.318-3.315L302.115,362.312z M326.838,297.832
	l1.29-22.095c0.151-2.581-1.022-5.061-3.114-6.582l-8.38-6.094c11.876,3.634,23.162,6.88,33.642,9.673
	C343.851,282.302,335.925,290.779,326.838,297.832z M373.061,262.794c1.216-2.726,2.333-5.505,3.351-8.332
	c11.611,5.86,19.118,10.254,23.932,13.42C394.572,267.226,385.907,265.78,373.061,262.794z"/>
</svg>